<svg width="26.012207" height="24.203125" viewBox="0 0 26.0122 24.2031" fill="none" xmlns="http://www.w3.org/2000/svg" xmlns:xlink="http://www.w3.org/1999/xlink">
	<desc>
			Created with Pixso.
	</desc>
	<defs/>
	<path id="Forma 1 copy" d="M5.49854 21.9634C5.50635 21.5303 5.64111 21.1094 5.88525 20.7532C6.12939 20.397 6.47266 20.1213 6.87158 19.9612C7.27051 19.801 7.70752 19.7632 8.12793 19.8525C8.54785 19.9419 8.93262 20.1543 9.2334 20.4634C9.53467 20.7722 9.73828 21.1641 9.81934 21.5894C9.8999 22.0146 9.85449 22.4546 9.68848 22.854C9.52246 23.2534 9.24316 23.5945 8.88525 23.8342C8.52783 24.074 8.10791 24.2019 7.67822 24.2021C7.38965 24.1995 7.104 24.1394 6.83789 24.0256C6.57227 23.9116 6.33105 23.7458 6.12891 23.5381C5.92627 23.3301 5.7666 23.084 5.6582 22.8137C5.55029 22.5437 5.49561 22.2546 5.49854 21.9634ZM21.3047 24.2021C20.8711 24.2085 20.4453 24.0872 20.0796 23.8523C19.7139 23.6177 19.4248 23.28 19.2471 22.8813C19.0693 22.4827 19.0117 22.0403 19.0806 21.6086C19.1494 21.1772 19.3423 20.7754 19.6353 20.4531C19.9277 20.1309 20.3076 19.9019 20.728 19.7949C21.1479 19.6877 21.5903 19.7073 21.9995 19.8508C22.4092 19.9941 22.7681 20.2554 23.0317 20.6021C23.2954 20.949 23.4531 21.366 23.4844 21.802C23.5269 22.3938 23.3369 22.9788 22.9556 23.4307C22.7705 23.6528 22.5435 23.8357 22.2876 23.9685C22.0317 24.1011 21.7524 24.1809 21.4653 24.2031L21.3047 24.2021ZM8.59375 17.2639C8.38135 17.2634 8.1748 17.1924 8.00684 17.0615C7.83838 16.9309 7.71777 16.7478 7.66357 16.5408L3.73633 1.97363L0.978516 1.97363C0.719238 1.97363 0.470215 1.86963 0.286621 1.68457C0.103027 1.49951 0 1.24854 0 0.986816C0 0.725098 0.103027 0.474121 0.286621 0.289062C0.470215 0.104004 0.719238 0 0.978516 0L4.45752 0C4.66992 0.000488281 4.87598 0.0717773 5.04395 0.202393C5.2124 0.333252 5.33301 0.516113 5.3877 0.723145L9.31445 15.2903L20.0186 15.2903L23.5767 6.90503L11.7188 6.90503C11.459 6.90503 11.21 6.80103 11.0264 6.61597C10.8433 6.43091 10.7402 6.17993 10.7402 5.91821C10.7402 5.65649 10.8433 5.40552 11.0264 5.22046C11.21 5.0354 11.459 4.9314 11.7188 4.9314L25.0537 4.9314C25.2129 4.93188 25.3701 4.9729 25.5098 5.05054C25.6499 5.12817 25.7681 5.24023 25.8535 5.37622C25.9414 5.51392 25.9946 5.67139 26.0083 5.83447C26.0225 5.9978 25.9966 6.16211 25.9336 6.31299L21.5425 16.6719C21.4688 16.8467 21.3462 16.9961 21.1895 17.1013C21.0327 17.2065 20.8486 17.2629 20.6606 17.2639L8.59375 17.2639Z" fill="#EF5B70" fill-opacity="1.000000" fill-rule="nonzero"/>
</svg>
