<svg width="14.907471" height="14.879974" viewBox="0 0 14.9075 14.88" fill="none" xmlns="http://www.w3.org/2000/svg" xmlns:xlink="http://www.w3.org/1999/xlink">
	<desc>
			Created with Pixso.
	</desc>
	<defs/>
	<path id="Vector" d="M7.45532 3.62494C5.34021 3.62494 3.63416 5.32828 3.63416 7.44C3.63416 9.5517 5.34021 11.255 7.45532 11.255C9.57056 11.255 11.2766 9.5517 11.2766 7.44C11.2766 5.32828 9.57056 3.62494 7.45532 3.62494ZM7.45532 9.92026C6.0885 9.92026 4.97107 8.80795 4.97107 7.44C4.97107 6.07202 6.08521 4.95972 7.45532 4.95972C8.82556 4.95972 9.9397 6.07202 9.9397 7.44C9.9397 8.80795 8.82227 9.92026 7.45532 9.92026ZM12.3242 3.4689C12.3242 3.96362 11.925 4.35873 11.4329 4.35873C10.9374 4.35873 10.5416 3.9603 10.5416 3.4689C10.5416 2.97748 10.9407 2.57904 11.4329 2.57904C11.925 2.57904 12.3242 2.97748 12.3242 3.4689ZM14.855 4.37201C14.7985 3.18002 14.5258 2.12418 13.6511 1.25424C12.7798 0.384338 11.7223 0.112061 10.5283 0.0523071C9.29785 -0.0174255 5.60962 -0.0174255 4.37915 0.0523071C3.18848 0.108734 2.13098 0.381012 1.25623 1.25092C0.381592 2.12085 0.112183 3.1767 0.0523682 4.36871C-0.0174561 5.59723 -0.0174561 9.27945 0.0523682 10.508C0.108887 11.7 0.381592 12.7558 1.25623 13.6257C2.13098 14.4957 3.18518 14.7679 4.37915 14.8277C5.60962 14.8974 9.29785 14.8974 10.5283 14.8277C11.7223 14.7712 12.7798 14.499 13.6511 13.6257C14.5225 12.7558 14.7952 11.7 14.855 10.508C14.9249 9.27945 14.9249 5.60052 14.855 4.37201ZM13.2654 11.8261C13.006 12.4769 12.5038 12.9783 11.8486 13.2406C10.8676 13.6291 8.53955 13.5394 7.45532 13.5394C6.37122 13.5394 4.03992 13.6257 3.06213 13.2406C2.41028 12.9816 1.90808 12.4802 1.64539 11.8261C1.25623 10.8466 1.34607 8.5224 1.34607 7.44C1.34607 6.35757 1.25964 4.03003 1.64539 3.05386C1.90479 2.40308 2.40698 1.9017 3.06213 1.6394C4.04321 1.25092 6.37122 1.34058 7.45532 1.34058C8.53955 1.34058 10.8708 1.25424 11.8486 1.6394C12.5005 1.89838 13.0027 2.39975 13.2654 3.05386C13.6544 4.03336 13.5647 6.35757 13.5647 7.44C13.5647 8.5224 13.6544 10.8499 13.2654 11.8261Z" fill="#000000" fill-opacity="1.000000" fill-rule="nonzero"/>
</svg>
