<svg width="11.919312" height="15.597107" viewBox="0 0 11.9193 15.5971" fill="none" xmlns="http://www.w3.org/2000/svg" xmlns:xlink="http://www.w3.org/1999/xlink">
	<desc>
			Created with Pixso.
	</desc>
	<defs/>
	<path id="Vector" d="M6.33215 0C3.14746 0 0 2.13751 0 5.59686C0 7.79688 1.22913 9.04688 1.97412 9.04688C2.28137 9.04688 2.45837 8.18439 2.45837 7.94061C2.45837 7.64999 1.72266 7.03125 1.72266 5.82187C1.72266 3.30939 3.62231 1.52814 6.08069 1.52814C8.19446 1.52814 9.75891 2.73749 9.75891 4.95938C9.75891 6.61874 9.09778 9.73126 6.95605 9.73126C6.18311 9.73126 5.52197 9.16876 5.52197 8.36249C5.52197 7.18124 6.34143 6.03751 6.34143 4.81876C6.34143 2.75 3.42676 3.125 3.42676 5.625C3.42676 6.14999 3.49194 6.73126 3.72473 7.20938C3.29639 9.06561 2.42114 11.8312 2.42114 13.7437C2.42114 14.3344 2.50488 14.9156 2.56079 15.5063C2.66626 15.625 2.61353 15.6125 2.7749 15.5531C4.33936 13.3969 4.28345 12.975 4.99121 10.1531C5.37305 10.8844 6.36011 11.2781 7.14221 11.2781C10.4387 11.2781 11.9193 8.04376 11.9193 5.12811C11.9193 2.02499 9.2561 0 6.33215 0Z" fill="#000000" fill-opacity="1.000000" fill-rule="nonzero"/>
</svg>
